<?xml version="1.0" encoding="UTF-8" standalone="no"?>
<!-- Created with Inkscape (http://www.inkscape.org/) -->

<svg
   xmlns:dc="http://purl.org/dc/elements/1.1/"
   xmlns:cc="http://creativecommons.org/ns#"
   xmlns:rdf="http://www.w3.org/1999/02/22-rdf-syntax-ns#"
   xmlns:svg="http://www.w3.org/2000/svg"
   xmlns="http://www.w3.org/2000/svg"
   xmlns:sodipodi="http://sodipodi.sourceforge.net/DTD/sodipodi-0.dtd"
   xmlns:inkscape="http://www.inkscape.org/namespaces/inkscape"
   width="210mm"
   height="297mm"
   viewBox="0 0 744.09448819 1052.3622047"
   id="stadedefrance"
   version="1.1"
   inkscape:version="0.91 r13725"
   sodipodi:docname="stade.svg">
  <defs
     id="defs4" />
  <sodipodi:namedview
     id="base"
     pagecolor="#ffffff"
     bordercolor="#666666"
     borderopacity="1.0"
     inkscape:pageopacity="0.0"
     inkscape:pageshadow="2"
     inkscape:zoom="0.7"
     inkscape:cx="-46.304235"
     inkscape:cy="585.42725"
     inkscape:document-units="px"
     inkscape:current-layer="layer3"
     showgrid="false"
     inkscape:window-width="1600"
     inkscape:window-height="853"
     inkscape:window-x="-4"
     inkscape:window-y="-4"
     inkscape:window-maximized="1" />
  <metadata
     id="metadata7">
    <rdf:RDF>
      <cc:Work
         rdf:about="">
        <dc:format>image/svg+xml</dc:format>
        <dc:type
           rdf:resource="http://purl.org/dc/dcmitype/StillImage" />
        <dc:title />
      </cc:Work>
    </rdf:RDF>
  </metadata>
  <g
     inkscape:groupmode="layer"
     id="layer2"
     inkscape:label="Plan quadrillage"
     style="display:inline">
    <path
       style="fill:none;fill-rule:evenodd;stroke:#000000;stroke-width:1px;stroke-linecap:butt;stroke-linejoin:miter;stroke-opacity:1"
       d="m 411.13209,729.871 27.02158,-4.29314 1.76776,11.36421 -10.85914,1.76777 3.03046,18.94036 -17.17259,1.76777 z"
       id="path3348"
       inkscape:connector-curvature="0" />
    <path
       style="fill:none;fill-rule:evenodd;stroke:#000000;stroke-width:1px;stroke-linecap:butt;stroke-linejoin:miter;stroke-opacity:1"
       d="m 443.20443,725.32532 26.01143,-6.31346 10.10152,29.54697 -18.94036,3.53553 -4.04061,-19.1929 -11.86929,3.03046 z"
       id="path3350"
       inkscape:connector-curvature="0" />
    <path
       style="fill:none;fill-rule:evenodd;stroke:#000000;stroke-width:1px;stroke-linecap:butt;stroke-linejoin:miter;stroke-opacity:1"
       d="m 435.62829,755.62989 21.2132,-2.77792 -3.78807,-14.14213 -19.44544,3.78807 z"
       id="path3352"
       inkscape:connector-curvature="0" />
    <path
       style="fill:none;fill-rule:evenodd;stroke:#000000;stroke-width:1px;stroke-linecap:butt;stroke-linejoin:miter;stroke-opacity:1"
       d="m 499.01536,721.03217 -6.06092,-11.36422 -22.98097,8.83884 10.10153,29.7995 16.66751,-4.54569 -8.83883,-17.67767 z"
       id="path3354"
       inkscape:connector-curvature="0"
       sodipodi:nodetypes="ccccccc" />
    <path
       style="fill:none;fill-rule:evenodd;stroke:#000000;stroke-width:1px;stroke-linecap:butt;stroke-linejoin:miter;stroke-opacity:1"
       d="m 503.30851,719.76948 11.11167,-4.29315 9.09138,17.67767 16.16244,-8.5863 -19.69798,-28.53681 -22.98097,12.62691 z"
       id="path3356"
       inkscape:connector-curvature="0" />
    <path
       style="fill:none;fill-rule:evenodd;stroke:#000000;stroke-width:1px;stroke-linecap:butt;stroke-linejoin:miter;stroke-opacity:1"
       d="m 500.02551,742.49791 19.69798,-7.3236 -7.82869,-14.89975 -18.43528,8.58629 z"
       id="path3360"
       inkscape:connector-curvature="0" />
    <path
       style="fill:none;fill-rule:evenodd;stroke:#000000;stroke-width:1px;stroke-linecap:butt;stroke-linejoin:miter;stroke-opacity:1"
       d="m 520.4811,695.52582 22.22336,-14.39468 8.08122,9.34391 -9.34392,8.08123 13.13199,15.65736 -14.89975,10.10153 z"
       id="path3362"
       inkscape:connector-curvature="0" />
    <path
       style="fill:none;fill-rule:evenodd;stroke:#000000;stroke-width:1px;stroke-linecap:butt;stroke-linejoin:miter;stroke-opacity:1"
       d="m 570.98873,133.37593 16.16244,19.95051 11.11168,-6.56599 -6.31346,-9.59645 19.1929,-13.63706 -11.86929,-12.12183 z"
       id="path3428"
       inkscape:connector-curvature="0" />
    <path
       style="fill:none;fill-rule:evenodd;stroke:#000000;stroke-width:1px;stroke-linecap:butt;stroke-linejoin:miter;stroke-opacity:1"
       d="m 552.3009,116.20333 8.83884,-7.82868 8.5863,6.56599 17.17259,-17.172592 12.37437,13.384522 -28.28427,21.71828 z"
       id="path3430"
       inkscape:connector-curvature="0" />
    <path
       style="fill:none;fill-rule:evenodd;stroke:#000000;stroke-width:1px;stroke-linecap:butt;stroke-linejoin:miter;stroke-opacity:1"
       d="m 528.81486,99.030739 20.70813,15.152291 7.82868,-9.34391 -9.09138,-7.828686 14.64722,-15.404826 -15.40483,-10.101526 z"
       id="path3432"
       inkscape:connector-curvature="0" />
    <path
       style="fill:none;fill-rule:evenodd;stroke:#000000;stroke-width:1px;stroke-linecap:butt;stroke-linejoin:miter;stroke-opacity:1"
       d="M 555.83644,96.757896 569.4735,108.62719 581.34279,95.495205 565.68543,84.383527 Z"
       id="path3434"
       inkscape:connector-curvature="0" />
    <path
       style="fill:none;fill-rule:evenodd;stroke:#000000;stroke-width:1px;stroke-linecap:butt;stroke-linejoin:miter;stroke-opacity:1"
       d="m 487.65114,46.755345 15.9099,5.808377 -7.82868,17.425131 10.35407,5.050763 -4.29315,10.101526 -24.24366,-8.838835 z"
       id="path3436"
       inkscape:connector-curvature="0" />
    <path
       style="fill:none;fill-rule:evenodd;stroke:#000000;stroke-width:1px;stroke-linecap:butt;stroke-linejoin:miter;stroke-opacity:1"
       d="m 511.38973,76.049769 -6.56599,10.859139 22.98097,12.121831 19.95051,-27.274119 -15.40483,-8.838834 -10.85914,18.687822 z"
       id="path3438"
       inkscape:connector-curvature="0" />
    <path
       style="fill:none;fill-rule:evenodd;stroke:#000000;stroke-width:1px;stroke-linecap:butt;stroke-linejoin:miter;stroke-opacity:1"
       d="m 509.11688,52.81626 19.44544,8.08122 -9.09137,14.89975 -18.43529,-8.586296 z"
       id="path3440"
       inkscape:connector-curvature="0" />
    <path
       style="fill:none;fill-rule:evenodd;stroke:#000000;stroke-width:1px;stroke-linecap:butt;stroke-linejoin:miter;stroke-opacity:1"
       d="m 423.50646,33.8759 -3.53554,31.314729 26.76904,3.282996 0.75762,-13.384522 -9.34391,-2.272843 2.27284,-16.667517 z"
       id="path3442"
       inkscape:connector-curvature="0" />
    <path
       style="fill:none;fill-rule:evenodd;stroke:#000000;stroke-width:1px;stroke-linecap:butt;stroke-linejoin:miter;stroke-opacity:1"
       d="m 453.55849,55.846718 -3.03045,13.131983 26.5165,7.323606 11.11168,-30.052039 -19.95051,-4.293148 -3.53554,15.657365 z"
       id="path3444"
       inkscape:connector-curvature="0" />
    <path
       style="fill:none;fill-rule:evenodd;stroke:#000000;stroke-width:1px;stroke-linecap:butt;stroke-linejoin:miter;stroke-opacity:1"
       d="m 444.71966,37.91651 -1.76777,12.879445 19.44544,3.788072 3.03046,-13.384521 z"
       id="path3446"
       inkscape:connector-curvature="0" />
    <path
       style="fill:none;fill-rule:evenodd;stroke:#000000;stroke-width:1px;stroke-linecap:butt;stroke-linejoin:miter;stroke-opacity:1"
       d="m 404.81863,32.108133 4.79823,0.505076 0.25254,6.565992 11.11167,0 -0.50507,-5.555839 3.03046,0.252538 -3.53554,31.314729 -29.7995,-4.04061 0.50508,-12.374369 13.88959,1.010152 z"
       id="path3448"
       inkscape:connector-curvature="0" />
    <path
       style="fill:none;fill-rule:evenodd;stroke:#000000;stroke-width:1px;stroke-linecap:butt;stroke-linejoin:miter;stroke-opacity:1"
       d="m 383.35289,30.592904 0.25254,14.647212 18.18275,1.010152 -0.25254,-13.889597 z"
       id="path3450"
       inkscape:connector-curvature="0" />
    <path
       style="fill:none;fill-rule:evenodd;stroke:#000000;stroke-width:1px;stroke-linecap:butt;stroke-linejoin:miter;stroke-opacity:1"
       d="m 360.62446,37.91651 19.95051,0.252538 -0.25254,11.111678 6.06092,-0.252538 0,11.869292 -27.52666,-1.010152 z"
       id="path3452"
       inkscape:connector-curvature="0" />
    <path
       style="fill:none;fill-rule:evenodd;stroke:#000000;stroke-width:1px;stroke-linecap:butt;stroke-linejoin:miter;stroke-opacity:1"
       d="m 359.86684,38.169048 -21.97081,-0.757614 -0.75762,11.616754 -8.83883,0 0.50507,11.364216 30.30458,-0.252538 z"
       id="path3454"
       inkscape:connector-curvature="0" />
    <path
       style="fill:none;fill-rule:evenodd;stroke:#000000;stroke-width:1px;stroke-linecap:butt;stroke-linejoin:miter;stroke-opacity:1"
       d="m 295.21708,32.865747 16.92006,-2.020305 0.75761,16.920055 10.85914,1.262691 0.50508,11.869292 -26.51651,2.272844 z"
       id="path3456"
       inkscape:connector-curvature="0" />
    <path
       style="fill:none;fill-rule:evenodd;stroke:#000000;stroke-width:1px;stroke-linecap:butt;stroke-linejoin:miter;stroke-opacity:1"
       d="m 316.43029,31.350518 17.42513,-0.505076 0.25253,13.384521 -17.42513,-0.505076 z"
       id="path3458"
       inkscape:connector-curvature="0" />
    <path
       style="fill:none;fill-rule:evenodd;stroke:#000000;stroke-width:1px;stroke-linecap:butt;stroke-linejoin:miter;stroke-opacity:1"
       d="m 230.06224,44.482502 18.18275,-4.293149 3.03046,15.657365 12.6269,-2.020305 3.53554,14.394673 -26.51651,6.313454 z"
       id="path3460"
       inkscape:connector-curvature="0" />
    <path
       style="fill:none;fill-rule:evenodd;stroke:#000000;stroke-width:1px;stroke-linecap:butt;stroke-linejoin:miter;stroke-opacity:1"
       d="m 277.79195,35.13859 16.66752,-2.020305 3.53553,31.062191 -27.27412,3.282996 -0.25254,-15.657365 8.83884,-1.26269 z"
       id="path3462"
       inkscape:connector-curvature="0" />
    <path
       style="fill:none;fill-rule:evenodd;stroke:#000000;stroke-width:1px;stroke-linecap:butt;stroke-linejoin:miter;stroke-opacity:1"
       d="m 273.24626,36.653819 c 0,0 3.03046,11.616755 2.02031,11.364216 -1.01015,-0.252538 -20.70813,3.788072 -20.70813,3.788072 l -2.0203,-12.374368 z"
       id="path3464"
       inkscape:connector-curvature="0" />
    <path
       style="fill:none;fill-rule:evenodd;stroke:#000000;stroke-width:1px;stroke-linecap:butt;stroke-linejoin:miter;stroke-opacity:1"
       d="m 219.70818,47.512959 9.59645,-2.525381 11.36421,29.546962 -23.99112,7.071068 -3.53553,-14.394674 12.6269,-4.545687 z"
       id="path3466"
       inkscape:connector-curvature="0" />
    <path
       style="fill:none;fill-rule:evenodd;stroke:#000000;stroke-width:1px;stroke-linecap:butt;stroke-linejoin:miter;stroke-opacity:1"
       d="m 188.39345,59.382252 7.07107,12.12183 23.23351,-9.848987 -6.06092,-13.131983 z"
       id="path3468"
       inkscape:connector-curvature="0" />
    <path
       style="fill:none;fill-rule:evenodd;stroke:#000000;stroke-width:1px;stroke-linecap:butt;stroke-linejoin:miter;stroke-opacity:1"
       d="m 175.514,73.776925 10.85914,-5.808377 5.55584,8.333759 15.15229,-5.555839 7.57615,12.879445 -25.50636,12.374368 z"
       id="path3470"
       inkscape:connector-curvature="0" />
    <path
       style="fill:none;fill-rule:evenodd;stroke:#000000;stroke-width:1px;stroke-linecap:butt;stroke-linejoin:miter;stroke-opacity:1"
       d="m 157.83634,76.807383 12.6269,-8.333758 19.1929,28.284271 -22.22336,14.394674 -7.82868,-13.384522 9.09138,-7.071067 z"
       id="path3472"
       inkscape:connector-curvature="0" />
    <path
       style="fill:none;fill-rule:evenodd;stroke:#000000;stroke-width:1px;stroke-linecap:butt;stroke-linejoin:miter;stroke-opacity:1"
       d="M 135.1079,92.464747 151.27034,79.837841 161.37187,91.707133 146.9772,104.33404 Z"
       id="path3474"
       inkscape:connector-curvature="0" />
    <path
       style="fill:none;fill-rule:evenodd;stroke:#000000;stroke-width:1px;stroke-linecap:butt;stroke-linejoin:miter;stroke-opacity:1"
       d="m 118.44039,105.84927 10.85914,-10.101527 16.41497,15.152287 8.83884,-7.82868 10.85914,9.84899 -19.44544,15.9099 z"
       id="path3476"
       inkscape:connector-curvature="0" />
    <path
       style="fill:none;fill-rule:evenodd;stroke:#000000;stroke-width:1px;stroke-linecap:butt;stroke-linejoin:miter;stroke-opacity:1"
       d="m 106.57109,117.21348 11.8693,-11.11167 27.77919,23.23351 -17.42513,19.44543 -12.87945,-9.84899 6.566,-9.09137 z"
       id="path3478"
       inkscape:connector-curvature="0" />
    <path
       style="fill:none;fill-rule:evenodd;stroke:#000000;stroke-width:1px;stroke-linecap:butt;stroke-linejoin:miter;stroke-opacity:1"
       d="m 161.11933,679.61592 20.96067,14.89975 -20.20305,26.01142 -14.64722,-9.34391 13.38452,-16.66751 -7.07106,-5.80838 z"
       id="path3538"
       inkscape:connector-curvature="0" />
    <path
       style="fill:none;fill-rule:evenodd;stroke:#000000;stroke-width:1px;stroke-linecap:butt;stroke-linejoin:miter;stroke-opacity:1"
       d="m 183.59523,694.01059 20.70812,12.12183 -6.31345,9.34391 -9.59645,-3.78807 -9.34391,16.16244 -5.80838,-2.52538 3.53554,-3.283 -8.83884,-6.81853 z"
       id="path3540"
       inkscape:connector-curvature="0" />
    <path
       style="fill:none;fill-rule:evenodd;stroke:#000000;stroke-width:1px;stroke-linecap:butt;stroke-linejoin:miter;stroke-opacity:1"
       d="m 207.83889,707.64765 25.50635,8.33376 -10.85914,29.7995 -16.92006,-6.31346 6.81853,-16.66751 -8.83883,-4.54569 z"
       id="path3542"
       inkscape:connector-curvature="0" />
    <path
       style="fill:none;fill-rule:evenodd;stroke:#000000;stroke-width:1px;stroke-linecap:butt;stroke-linejoin:miter;stroke-opacity:1"
       d="m 190.16122,717.2441 17.67767,8.33376 -6.566,12.37436 -18.43528,-7.82868 z"
       id="path3544"
       inkscape:connector-curvature="0" />
    <path
       style="fill:none;fill-rule:evenodd;stroke:#000000;stroke-width:1px;stroke-linecap:butt;stroke-linejoin:miter;stroke-opacity:1"
       d="m 234.86047,716.73902 24.24366,5.55584 -2.27285,11.86929 -12.6269,-2.77792 -2.27285,18.68783 -19.44543,-4.54569 z"
       id="path3546"
       inkscape:connector-curvature="0" />
    <path
       style="fill:none;fill-rule:evenodd;stroke:#000000;stroke-width:1px;stroke-linecap:butt;stroke-linejoin:miter;stroke-opacity:1"
       d="m 263.90235,723.81009 26.51651,4.04061 -3.53554,30.55711 -18.43528,-3.28299 4.54569,-18.43529 -11.61676,-2.0203 z"
       id="path3548"
       inkscape:connector-curvature="0" />
    <path
       style="fill:none;fill-rule:evenodd;stroke:#000000;stroke-width:1px;stroke-linecap:butt;stroke-linejoin:miter;stroke-opacity:1"
       d="m 249.76022,737.95222 -2.77792,13.63706 16.41498,3.283 2.27284,-13.8896 z"
       id="path3550"
       inkscape:connector-curvature="0" />
    <path
       style="fill:none;fill-rule:evenodd;stroke:#000000;stroke-width:1px;stroke-linecap:butt;stroke-linejoin:miter;stroke-opacity:1"
       d="m 291.42901,728.10324 26.01143,1.76776 0.75761,13.38453 -13.38452,0 0.50508,16.66751 -18.68782,-1.51523 z"
       id="path3552"
       inkscape:connector-curvature="0" />
    <path
       style="fill:none;fill-rule:evenodd;stroke:#000000;stroke-width:1px;stroke-linecap:butt;stroke-linejoin:miter;stroke-opacity:1"
       d="m 322.74374,731.13369 27.27412,0.25254 0.25254,22.4759 -19.69798,-0.25254 -0.50508,-11.11168 -7.3236,0.25254 z"
       id="path3554"
       inkscape:connector-curvature="0" />
    <path
       style="fill:none;fill-rule:evenodd;stroke:#000000;stroke-width:1px;stroke-linecap:butt;stroke-linejoin:miter;stroke-opacity:1"
       d="m 309.35922,746.53852 0,13.63706 16.16244,1.26269 -0.50508,-14.14213 z"
       id="path3556"
       inkscape:connector-curvature="0" />
    <path
       style="fill:none;fill-rule:evenodd;stroke:#000000;stroke-width:1px;stroke-linecap:butt;stroke-linejoin:miter;stroke-opacity:1"
       d="m 351.78562,731.89131 28.03174,-0.25254 0.75761,11.86929 -8.83883,-0.25253 0,12.37436 -21.21321,-1.26269 z"
       id="path3558"
       inkscape:connector-curvature="0" />
    <path
       style="fill:none;fill-rule:evenodd;stroke:#000000;stroke-width:1px;stroke-linecap:butt;stroke-linejoin:miter;stroke-opacity:1"
       d="m 383.35289,732.14385 0.25254,11.36421 13.13198,0.25254 -0.25254,17.42513 4.79823,1.26269 0.50508,-8.08122 11.86929,-1.51523 -2.77792,-23.99112 z"
       id="path3560"
       inkscape:connector-curvature="0" />
    <path
       style="fill:none;fill-rule:evenodd;stroke:#000000;stroke-width:1px;stroke-linecap:butt;stroke-linejoin:miter;stroke-opacity:1"
       d="m 375.52421,761.94335 17.42513,-0.25254 0,-14.39467 -17.93021,0 z"
       id="path3562"
       inkscape:connector-curvature="0" />
    <path
       style="fill:none;fill-rule:evenodd;stroke:#000000;stroke-width:1px;stroke-linecap:butt;stroke-linejoin:miter;stroke-opacity:1"
       d="m 225.35714,678.79078 -7.5,11.78571 7.5,6.78571 -5.71428,13.21429 13.21428,5 12.14286,-30 z"
       id="path3638"
       inkscape:connector-curvature="0" />
    <path
       style="fill:none;fill-rule:evenodd;stroke:#000000;stroke-width:1px;stroke-linecap:butt;stroke-linejoin:miter;stroke-opacity:1"
       d="m 265.35714,689.8622 -3.21428,14.64286 -11.78572,0.71429 -2.85714,13.57143 -12.85714,-3.21429 11.42857,-29.64286 z"
       id="path3640"
       inkscape:connector-curvature="0" />
    <path
       style="fill:none;fill-rule:evenodd;stroke:#000000;stroke-width:1px;stroke-linecap:butt;stroke-linejoin:miter;stroke-opacity:1"
       d="m 269.28571,691.64792 25,4.64286 -4.28571,30 -13.92857,-2.5 1.07143,-14.64286 -10.35715,-6.07143 z"
       id="path3642"
       inkscape:connector-curvature="0" />
    <path
       style="fill:none;fill-rule:evenodd;stroke:#000000;stroke-width:1px;stroke-linecap:butt;stroke-linejoin:miter;stroke-opacity:1"
       d="m 257.5,707.71935 13.92857,2.5 -0.35714,13.21428 -17.85714,-3.57143 z"
       id="path3644"
       inkscape:connector-curvature="0" />
    <path
       style="fill:none;fill-rule:evenodd;stroke:#000000;stroke-width:1px;stroke-linecap:butt;stroke-linejoin:miter;stroke-opacity:1"
       d="m 296.78571,695.57649 23.57143,3.21429 -1.42857,14.64285 -12.14286,2.5 1.07143,12.14286 -17.14285,-1.78571 z"
       id="path3646"
       inkscape:connector-curvature="0" />
    <path
       style="fill:none;fill-rule:evenodd;stroke:#000000;stroke-width:1px;stroke-linecap:butt;stroke-linejoin:miter;stroke-opacity:1"
       d="m 327.14286,698.43363 24.64285,0.35715 -0.71428,32.85714 -16.78572,-2.14286 0.35715,-13.21428 -9.28572,-4.28572 z"
       id="path3648"
       inkscape:connector-curvature="0" />
    <path
       style="fill:none;fill-rule:evenodd;stroke:#000000;stroke-width:1px;stroke-linecap:butt;stroke-linejoin:miter;stroke-opacity:1"
       d="m 312.5,728.43363 1.07143,-10.35714 16.07143,0.71429 0.71428,10.71428 z"
       id="path3650"
       inkscape:connector-curvature="0" />
    <path
       style="fill:none;fill-rule:evenodd;stroke:#000000;stroke-width:1px;stroke-linecap:butt;stroke-linejoin:miter;stroke-opacity:1"
       d="m 366.07143,729.50506 1.07143,-12.5 9.28571,-5.35714 0,-13.92857 -23.92857,0 -1.07143,33.21428 z"
       id="path3652"
       inkscape:connector-curvature="0" />
    <path
       style="fill:none;fill-rule:evenodd;stroke:#000000;stroke-width:1px;stroke-linecap:butt;stroke-linejoin:miter;stroke-opacity:1"
       d="m 382.14286,697.71935 26.78571,-0.71429 3.92857,31.78572 -17.85714,0.71428 0,-13.92857 -12.85714,-6.07143 z"
       id="path3654"
       inkscape:connector-curvature="0" />
    <path
       style="fill:none;fill-rule:evenodd;stroke:#000000;stroke-width:1px;stroke-linecap:butt;stroke-linejoin:miter;stroke-opacity:1"
       d="M 371.07143,729.8622 392.85714,729.50506 390,717.71935 372.5,717.00506 Z"
       id="path3656"
       inkscape:connector-curvature="0" />
    <path
       style="fill:none;fill-rule:evenodd;stroke:#000000;stroke-width:1px;stroke-linecap:butt;stroke-linejoin:miter;stroke-opacity:1"
       d="m 411.42857,695.93363 20.71429,-2.5 3.57143,13.21429 L 425,712.3622 l 2.14286,13.57143 -13.57143,2.14286 z"
       id="path3658"
       inkscape:connector-curvature="0" />
    <path
       style="fill:none;fill-rule:evenodd;stroke:#000000;stroke-width:1px;stroke-linecap:butt;stroke-linejoin:miter;stroke-opacity:1"
       d="m 436.78571,693.79078 22.14286,-6.78572 10.35715,31.42857 c 0,0 -12.85715,6.42857 -14.28572,4.28572 -1.42857,-2.14286 -5.35714,-15.71429 -5.35714,-15.71429 L 440,705.21935 Z"
       id="path3660"
       inkscape:connector-curvature="0" />
    <path
       style="fill:none;fill-rule:evenodd;stroke:#000000;stroke-width:1px;stroke-linecap:butt;stroke-linejoin:miter;stroke-opacity:1"
       d="m 432.14286,725.21935 19.28571,-2.85715 -5,-12.85714 -16.07143,4.64286 z"
       id="path3662"
       inkscape:connector-curvature="0" />
    <path
       style="fill:none;fill-rule:evenodd;stroke:#000000;stroke-width:1px;stroke-linecap:butt;stroke-linejoin:miter;stroke-opacity:1"
       d="m 460,687.3622 17.85714,-7.5 7.5,11.07143 -7.85714,9.28572 5,13.21428 -12.85714,4.64286 z"
       id="path3664"
       inkscape:connector-curvature="0" />
    <path
       style="fill:none;fill-rule:evenodd;stroke:#000000;stroke-width:1px;stroke-linecap:butt;stroke-linejoin:miter;stroke-opacity:1"
       d="m 525.71429,136.64792 7.14285,-8.21429 -4.28571,-9.28571 10.71429,-12.85715 -10,-7.499995 -21.42858,28.571425 z"
       id="path3800"
       inkscape:connector-curvature="0" />
    <path
       style="fill:none;fill-rule:evenodd;stroke:#000000;stroke-width:1px;stroke-linecap:butt;stroke-linejoin:miter;stroke-opacity:1"
       d="m 529.64286,141.64792 9.28571,-9.28572 7.14286,3.92857 15.35714,-12.5 10.71429,10.71429 -28.57143,21.78571 -15.35714,-14.64285 z"
       id="path3802"
       inkscape:connector-curvature="0" />
    <path
       style="fill:none;fill-rule:evenodd;stroke:#000000;stroke-width:1px;stroke-linecap:butt;stroke-linejoin:miter;stroke-opacity:1"
       d="m 535,122.3622 8.92857,10 13.21429,-11.78571 -13.92857,-10 z"
       id="path3804"
       inkscape:connector-curvature="0" />
    <path
       style="fill:none;fill-rule:evenodd;stroke:#000000;stroke-width:1px;stroke-linecap:butt;stroke-linejoin:miter;stroke-opacity:1"
       d="m 478.21429,173.07649 -6.78572,-5.35714 32.5,-43.57143 18.21429,13.21428 z"
       id="path3806"
       inkscape:connector-curvature="0" />
    <path
       style="fill:none;fill-rule:evenodd;stroke:#000000;stroke-width:1px;stroke-linecap:butt;stroke-linejoin:miter;stroke-opacity:1"
       d="m 462.85714,161.64792 -13.57143,-7.14286 -13.21428,-1.78571 13.21428,-48.92858 24.64286,6.07143 20.35715,9.28572 z"
       id="path3808"
       inkscape:connector-curvature="0" />
    <path
       style="fill:none;fill-rule:evenodd;stroke:#000000;stroke-width:1px;stroke-linecap:butt;stroke-linejoin:miter;stroke-opacity:1"
       d="m 466.78572,106.29077 11.07142,-29.999995 12.14286,5 -6.42857,14.642857 5.35714,7.499998 c 0,0 -1.07143,12.14286 -3.92857,11.07143 -2.85714,-1.07143 -18.21428,-8.21429 -18.21428,-8.21429 z"
       id="path3810"
       inkscape:connector-curvature="0" />
    <path
       style="fill:none;fill-rule:evenodd;stroke:#000000;stroke-width:1px;stroke-linecap:butt;stroke-linejoin:miter;stroke-opacity:1"
       d="m 488.92857,115.57649 8.21429,-9.28572 13.21428,-1.07142 5,-13.571433 13.57143,7.857143 -20.35714,27.85714 z"
       id="path3812"
       inkscape:connector-curvature="0" />
    <path
       style="fill:none;fill-rule:evenodd;stroke:#000000;stroke-width:1px;stroke-linecap:butt;stroke-linejoin:miter;stroke-opacity:1"
       d="m 493.57143,83.433632 16.07143,6.428571 -6.78572,13.214287 -14.28571,-6.785715 z"
       id="path3814"
       inkscape:connector-curvature="0" />
    <path
       style="fill:none;fill-rule:evenodd;stroke:#000000;stroke-width:1px;stroke-linecap:butt;stroke-linejoin:miter;stroke-opacity:1"
       d="m 370,94.862203 -1.07143,50.357147 18.57143,1.42857 1.42857,-50.714288 z"
       id="path3816"
       inkscape:connector-curvature="0" />
    <path
       style="fill:none;fill-rule:evenodd;stroke:#000000;stroke-width:1px;stroke-linecap:butt;stroke-linejoin:miter;stroke-opacity:1"
       d="m 401.07143,96.290775 20,1.785714 18.21428,3.571431 -8.92857,50.71428 -21.78571,-6.07143 -17.85714,-0.35714 7.85714,-49.285713 z"
       id="path3818"
       inkscape:connector-curvature="0" />
    <path
       style="fill:none;fill-rule:evenodd;stroke:#000000;stroke-width:1px;stroke-linecap:butt;stroke-linejoin:miter;stroke-opacity:1"
       d="m 420,67.00506 -4.64286,29.642857 23.57143,3.928573 L 440,90.576489"
       id="path3820"
       inkscape:connector-curvature="0" />
    <path
       style="fill:none;fill-rule:evenodd;stroke:#000000;stroke-width:1px;stroke-linecap:butt;stroke-linejoin:miter;stroke-opacity:1"
       d="m 432.5,67.719346 -0.35714,16.785714 6.78571,5.357143 0.35714,10.357147 -23.92857,-4.642861 3.92857,-29.285714 z"
       id="path3822"
       inkscape:connector-curvature="0" />
    <path
       style="fill:none;fill-rule:evenodd;stroke:#000000;stroke-width:1px;stroke-linecap:butt;stroke-linejoin:miter;stroke-opacity:1"
       d="m 440,67.719346 13.92857,3.571429 0.35715,13.928571 -8.21429,3.571429 L 438.92857,87.00506 437.5,80.576489 Z"
       id="path3824"
       inkscape:connector-curvature="0" />
    <path
       style="fill:none;fill-rule:evenodd;stroke:#000000;stroke-width:1px;stroke-linecap:butt;stroke-linejoin:miter;stroke-opacity:1"
       d="m 461.42857,72.362203 15.71429,4.285714 -10,30.000003 -23.57143,-6.07143 1.07143,-9.285715 14.64286,-2.857143 z"
       id="path3826"
       inkscape:connector-curvature="0" />
    <path
       style="fill:none;fill-rule:evenodd;stroke:#000000;stroke-width:1px;stroke-linecap:butt;stroke-linejoin:miter;stroke-opacity:1"
       d="m 401.78571,64.147917 1.07143,14.285715 -13.57143,6.071428 -0.35714,9.642857 27.14286,3.571429 3.57143,-32.5 z"
       id="path3828"
       inkscape:connector-curvature="0" />
    <path
       style="fill:none;fill-rule:evenodd;stroke:#000000;stroke-width:1px;stroke-linecap:butt;stroke-linejoin:miter;stroke-opacity:1"
       d="M 373.57143,61.290775 358.92857,59.147917 358.21429,93.076489 382.85714,94.50506 382.5,83.790775 373.21429,77.719346 Z"
       id="path3830"
       inkscape:connector-curvature="0" />
    <path
       style="fill:none;fill-rule:evenodd;stroke:#000000;stroke-width:1px;stroke-linecap:butt;stroke-linejoin:miter;stroke-opacity:1"
       d="m 378.92857,62.00506 17.85714,1.071429 0,14.642857 -9.64285,3.571429 -8.57143,-4.642858 z"
       id="path3832"
       inkscape:connector-curvature="0" />
    <path
       style="fill:none;fill-rule:evenodd;stroke:#000000;stroke-width:1px;stroke-linecap:butt;stroke-linejoin:miter;stroke-opacity:1"
       d="M 328.92857,145.93363 330,94.862203 l 21.07143,-0.714286 -3.21429,51.428573 z"
       id="path3834"
       inkscape:connector-curvature="0" />
    <path
       style="fill:none;fill-rule:evenodd;stroke:#000000;stroke-width:1px;stroke-linecap:butt;stroke-linejoin:miter;stroke-opacity:1"
       d="m 324.28571,147.00506 -16.07142,0 -19.28572,2.85714 -7.85714,-48.57143 18.57143,-2.857138 20.71428,-2.5 z"
       id="path3836"
       inkscape:connector-curvature="0" />
    <path
       style="fill:none;fill-rule:evenodd;stroke:#000000;stroke-width:1px;stroke-linecap:butt;stroke-linejoin:miter;stroke-opacity:1"
       d="M 269.28571,103.43363 245,109.50506 l -20.71429,7.5 28.57143,45.35714 14.28572,-7.14285 17.5,-4.28572 z"
       id="path3838"
       inkscape:connector-curvature="0" />
    <path
       style="fill:none;fill-rule:evenodd;stroke:#000000;stroke-width:1px;stroke-linecap:butt;stroke-linejoin:miter;stroke-opacity:1"
       d="m 199.28571,130.93363 17.14286,-9.28571 34.28572,43.21428 -11.78572,7.14286 z"
       id="path3840"
       inkscape:connector-curvature="0" />
    <path
       style="fill:none;fill-rule:evenodd;stroke:#000000;stroke-width:1px;stroke-linecap:butt;stroke-linejoin:miter;stroke-opacity:1"
       d="m 190,96.290775 18.92857,29.285715 17.85714,-10.35714 -6.42857,-10.35715 -11.42857,1.42857 L 200,90.933632 Z"
       id="path3842"
       inkscape:connector-curvature="0" />
    <path
       style="fill:none;fill-rule:evenodd;stroke:#000000;stroke-width:1px;stroke-linecap:butt;stroke-linejoin:miter;stroke-opacity:1"
       d="M 231.78571,112.00506 226.42857,103.07649 235,93.433632 227.5,78.076489 241.07143,74.862203 252.85714,107.00506 Z"
       id="path3844"
       inkscape:connector-curvature="0" />
    <path
       style="fill:none;fill-rule:evenodd;stroke:#000000;stroke-width:1px;stroke-linecap:butt;stroke-linejoin:miter;stroke-opacity:1"
       d="m 206.78571,87.719346 13.92858,-7.5 7.14285,14.285714 -5.35714,8.57143 -8.57143,-1.07143 z"
       id="path3846"
       inkscape:connector-curvature="0" />
    <path
       style="fill:none;fill-rule:evenodd;stroke:#000000;stroke-width:1px;stroke-linecap:butt;stroke-linejoin:miter;stroke-opacity:1"
       d="m 242.14286,74.147917 12.14285,-3.214285 4.28572,15 11.42857,3.214285 4.64286,13.571433 -21.07143,2.85714 z"
       id="path3848"
       inkscape:connector-curvature="0" />
    <path
       style="fill:none;fill-rule:evenodd;stroke:#000000;stroke-width:1px;stroke-linecap:butt;stroke-linejoin:miter;stroke-opacity:1"
       d="M 261.42857,70.576489 265,83.433632 l 9.64286,4.642857 6.07143,-7.142857 -2.14286,-13.928572 z"
       id="path3850"
       inkscape:connector-curvature="0" />
    <path
       style="fill:none;fill-rule:evenodd;stroke:#000000;stroke-width:1px;stroke-linecap:butt;stroke-linejoin:miter;stroke-opacity:1"
       d="m 283.57143,65.576489 15,-0.714286 4.28571,33.571429 -25,2.499998 0,-9.999998 L 287.5,79.50506 Z"
       id="path3852"
       inkscape:connector-curvature="0" />
    <path
       style="fill:none;fill-rule:evenodd;stroke:#000000;stroke-width:1px;stroke-linecap:butt;stroke-linejoin:miter;stroke-opacity:1"
       d="m 300,63.790775 15.35714,-1.428572 -0.71428,16.428572 11.07143,5.714285 1.78571,9.642857 -24.28571,3.571429 z"
       id="path3854"
       inkscape:connector-curvature="0" />
    <path
       style="fill:none;fill-rule:evenodd;stroke:#000000;stroke-width:1px;stroke-linecap:butt;stroke-linejoin:miter;stroke-opacity:1"
       d="m 320.35714,62.00506 -0.71428,16.071429 10.35714,5 9.28571,-5.357143 L 337.5,61.647917 Z"
       id="path3856"
       inkscape:connector-curvature="0" />
    <path
       style="fill:none;fill-rule:evenodd;stroke:#000000;stroke-width:1px;stroke-linecap:butt;stroke-linejoin:miter;stroke-opacity:1"
       d="m 342.85714,60.576489 15.71429,-0.357143 0,33.214286 -25.35714,0.714285 -1.07143,-8.928571 12.5,-8.571429 z"
       id="path3858"
       inkscape:connector-curvature="0" />
    <path
       style="fill:none;fill-rule:evenodd;stroke:#000000;stroke-width:1px;stroke-linecap:butt;stroke-linejoin:miter;stroke-opacity:1"
       d="m 101.78571,122.71935 14.64286,10 -10.35714,13.57142 -17.142858,-8.92857 z"
       id="path3860"
       inkscape:connector-curvature="0" />
    <path
       style="fill:none;fill-rule:evenodd;stroke:#000000;stroke-width:1px;stroke-linecap:butt;stroke-linejoin:miter;stroke-opacity:1"
       d="m 178.57143,103.43363 12.14286,14.28572 -6.78572,9.28571 5.71429,9.28571 18.57143,-11.42857 -18.92858,-28.571425 z"
       id="path3862"
       inkscape:connector-curvature="0" />
    <path
       style="fill:none;fill-rule:evenodd;stroke:#000000;stroke-width:1px;stroke-linecap:butt;stroke-linejoin:miter;stroke-opacity:1"
       d="m 173.21429,107.71935 -13.92858,9.64285 13.92858,12.85715 11.42857,-9.28572 z"
       id="path3864"
       inkscape:connector-curvature="0" />
    <path
       style="fill:none;fill-rule:evenodd;stroke:#000000;stroke-width:1px;stroke-linecap:butt;stroke-linejoin:miter;stroke-opacity:1"
       d="m 155.71429,121.64792 -9.28572,7.5 27.14286,23.21428 14.28571,-12.5 -8.57143,-8.57143 -8.92857,3.21429 z"
       id="path3866"
       inkscape:connector-curvature="0" />
  </g>
  <g
     inkscape:groupmode="layer"
     id="layer3"
     inkscape:label="contour"
     sodipodi:insensitive="true">
    <path
       style="fill:none;fill-rule:evenodd;stroke:#ea0000;stroke-width:1px;stroke-linecap:butt;stroke-linejoin:miter;stroke-opacity:1"
       d="m 688.57143,458.07649 3.57143,-59.28571 0,-41.42858 -5.71429,-72.85714 -8.57143,-46.42857 -7.14285,-28.57143 -13.57143,-35.71428 -10.71429,-19.28572 -32.85714,-42.14286 -35.71429,-32.857139 c 0,0 -31.42857,-20 -34.28571,-20.714286 C 540.71429,58.076489 495,40.933632 495,40.933632 l -71.42857,-14.285714 -36.42857,-3.571429 -65,0 -49.28572,6.428572 -44.28571,8.571428 -50.71429,20 -26.42857,12.142858 -34.28571,26.428571 -28.571431,27.857142 -20.714286,29.28572 -16.428572,32.85714 -12.537698,28.29782 -11.111678,55.05332 -8.586297,65.15484 -2.525381,52.52793 -1.010153,41.92133 4.040611,57.07362 5.555839,39.39595 10.101525,50.00255 15.657365,39.39595 18.687822,28.28427 17.172593,20.70813 18.687821,20.70812 14.14214,13.13199 27.77919,20.20305 11.61676,7.07107 30.80965,15.15228 33.84011,11.11168 38.3858,9.09138 43.43656,6.06091 11.61675,2.52538 67.68022,-2.0203 51.51778,-5.55584 45.96194,-5.55584 32.82996,-9.09137 29.7995,-15.65737 23.23351,-17.67767 28.78934,-23.73858 25.25382,-28.28427 25.25381,-34.34519 11.61676,-21.2132 9.09137,-26.76905 9.09137,-31.8198 5.55584,-29.7995 3.53553,-32.32488 z"
       id="path3953"
       inkscape:connector-curvature="0" />
  </g>
</svg>
